<svg width="193" height="34" viewBox="0 0 193 34" fill="none" xmlns="http://www.w3.org/2000/svg">
<g clip-path="url(#clip0_133_1990)">
<path d="M5.76685 27.1378V22.2913L6.69265 21.2517V27.1398H7.57057V20.2641L9.8372 17.7141L12.1038 20.2621V27.1378H12.9818V21.2497L13.9076 22.2913V27.1398H14.7855V23.2809L15.7113 24.3225V27.1418H16.5892V25.3121L18.1276 27.044L12.8281 33.0039C12.6705 33.1815 12.6944 33.3132 12.7224 33.377C12.7503 33.4409 12.8341 33.5466 13.0715 33.5466H24.3867C24.5164 33.5466 24.6302 33.4728 24.684 33.3531C24.7379 33.2354 24.716 33.0997 24.6302 33.0019L19.3307 27.042L20.8691 25.3121V27.1418H21.747V24.3245L22.6728 23.2829V27.1418H23.5507V22.2913L24.4765 21.2497V27.1378H25.3544V20.2621L27.6211 17.7121L29.8877 20.2621V27.1378H30.7656V21.2497L31.6914 22.2913V27.1378H32.5694V23.2789L33.4952 24.3205V27.1398H34.3731V25.3101L35.9932 27.1318L36.0012 27.1398H37.2044L27.639 16.3813L27.6211 16.3613L18.7301 26.3616L9.85516 16.3813L9.8372 16.3613L0.291816 27.0979L0.253906 27.1398H1.45706L3.0852 25.3101V27.1398H3.96312V24.3205L4.88893 23.2789V27.1378H5.76685ZM14.3206 32.6747L18.7301 27.7144L23.1397 32.6747H14.3206Z" fill="white"/>
<path d="M9.37601 20.1211H8.49609V27.1365H9.37601V20.1211Z" fill="white"/>
<path d="M11.1748 20.1211H10.2969V27.1365H11.1748V20.1211Z" fill="white"/>
<path d="M27.1612 20.1211H26.2812V27.1365H27.1612V20.1211Z" fill="white"/>
<path d="M28.9639 20.1211H28.0859V27.1365H28.9639V20.1211Z" fill="white"/>
<path d="M19.5935 4.05418C19.8928 4.05418 20.1362 3.81076 20.1362 3.51146C20.1362 3.21217 19.8928 2.96875 19.5935 2.96875C19.2942 2.96875 19.0508 3.21217 19.0508 3.51146C19.0508 3.81076 19.2942 4.05418 19.5935 4.05418Z" fill="white"/>
<path d="M18.7306 24.4726L26.7696 15.4301L26.7835 15.4141L19.3511 7.0559C21.955 4.26451 24.0999 4.03306 24.5049 4.0151C24.6925 4.00513 24.8441 3.8894 24.9359 3.68389L24.9599 3.60009C24.9938 3.43248 24.9599 3.32673 24.8362 3.20702L24.7863 3.16512C23.1082 1.75645 20.7977 1.58486 19.8819 1.57688C19.6764 1.57488 19.1736 1.5669 19.0199 1.55493C16.9768 1.38932 16.1368 0.710931 15.8175 0.319857L15.7976 0.293918L15.7656 0.285937C15.4584 0.208122 15.1471 0.182183 14.8398 0.210117L14.7161 0.222089L14.754 0.33981C14.8159 0.529361 15.4544 2.20739 18.9601 2.48872C19.1416 2.50269 19.6464 2.51266 19.856 2.51665C20.4585 2.52663 21.9849 2.6244 23.2938 3.29481C22.2323 3.61605 20.1832 4.54185 18.0043 7.16564L10.6937 15.3961L10.6797 15.4121L18.7147 24.4487L18.7306 24.4726ZM11.8788 15.4141L18.7306 7.70835L25.5824 15.4141L18.7306 23.1198L11.8788 15.4141Z" fill="white"/>
</g>
<path d="M46.7565 28.0003L65.2156 6.00027" stroke="white" stroke-width="1.08045"/>
<path d="M46.784 6.00027L65.243 28.0003" stroke="white" stroke-width="1.08045"/>
<path d="M74.3442 9.53788H81.7549V9.64474L79.0569 9.99634C78.9768 10.3583 78.9175 11.0132 78.8687 11.9508C78.8199 12.8781 78.7885 13.6709 78.7885 14.3259C78.7885 14.8912 78.8094 15.5875 78.8478 16.4182C79.8447 16.6044 81.3261 16.7009 83.3026 16.7009C84.289 16.7009 85.2093 16.6699 86.0702 16.632C86.9382 16.594 87.7294 16.5251 88.4405 16.4182C88.4893 15.7633 88.5207 14.9808 88.5207 14.0742C88.5207 13.5365 88.4998 12.9987 88.4719 12.461C88.4405 11.9129 88.4126 11.4855 88.3743 11.1511C88.3429 10.8271 88.2941 10.4272 88.2349 9.97911L85.5369 9.64819V9.54133H92.9267V9.64819L90.8527 9.97911C90.7446 10.4686 90.6644 11.3097 90.6156 12.492C90.5668 13.664 90.5355 14.8085 90.5355 15.9219V19.2931C90.5355 21.3165 90.6435 22.8298 90.8527 23.8364L92.9476 24.188V24.2845H85.5369V24.188L88.1861 23.8364C88.3743 22.6919 88.4824 21.4441 88.5207 20.0756C88.5312 19.724 88.5312 19.3034 88.5207 18.8036C88.4998 18.2969 88.4719 17.7764 88.4405 17.2318H78.8269C78.7955 17.7385 78.7885 18.5313 78.7885 19.6068C78.7885 20.2411 78.8094 20.9856 78.8582 21.8336C78.8966 22.685 78.9768 23.3572 79.0848 23.8364L81.7514 24.188V24.2845H74.3198V24.188L76.3764 23.8364C76.4252 23.564 76.474 23.0849 76.5333 22.3886C76.5821 21.6957 76.6309 20.9132 76.6622 20.0446C76.7006 19.1759 76.711 18.4417 76.711 17.8557V14.1328C76.711 14.026 76.7006 13.6744 76.6797 13.078C76.6588 12.4713 76.6309 11.875 76.5821 11.2787C76.5228 10.6823 76.474 10.2514 76.4147 9.97911L74.3407 9.64819V9.54133L74.3442 9.53788ZM93.1567 9.64474V9.53788H104.004L104.262 12.6747H104.105L103.373 10.2238C102.791 10.1859 102.139 10.1652 101.428 10.1652C100.114 10.1652 99.0581 10.2549 98.2564 10.4307C98.1169 11.5234 98.0577 12.7643 98.0577 14.1535C98.0577 15.0325 98.0786 15.7357 98.1378 16.2838C99.2149 16.3424 99.8877 16.3734 100.184 16.3734C100.954 16.3734 101.746 16.3252 102.554 16.2355L103.007 14.5258H103.185V18.8243H103.007L102.533 17.0077C101.941 16.9388 101.289 16.9112 100.578 16.9112C99.6785 16.9112 98.8698 16.9491 98.1378 17.0284C98.0472 17.8109 98.0193 18.5727 98.0577 19.3138C98.0681 20.2617 98.089 21.0546 98.1065 21.6785C98.1274 22.2955 98.1657 22.8298 98.2145 23.2814C99.0441 23.5261 100.132 23.6537 101.474 23.6537C102.244 23.6537 102.896 23.6226 103.429 23.564L104.238 21.1304H104.388L104.161 24.2879H93.1846V24.1914L95.6246 23.8295C95.6734 23.5571 95.7222 23.1366 95.7745 22.5782C95.8129 22.0128 95.8547 21.3751 95.893 20.6823C95.9244 19.9791 95.9418 19.3931 95.9627 18.9139C95.9732 18.4451 95.9837 18.0246 95.9837 17.673V15.1325C95.9837 14.8085 95.9732 14.35 95.9523 13.764C95.9314 13.1677 95.893 12.5541 95.8617 11.906C95.8129 11.2718 95.7536 10.6375 95.6839 9.99979L93.1532 9.64819L93.1567 9.64474ZM105.273 9.53788H113.653C115.204 9.53788 116.539 9.76194 117.634 10.2135C118.732 10.6616 119.589 11.2407 120.234 11.9612C120.865 12.6747 121.321 13.4572 121.597 14.3052C121.865 15.1463 122.001 16.0046 122.001 16.8836C122.001 17.9384 121.823 18.9243 121.468 19.8343C121.112 20.7443 120.6 21.5337 119.938 22.199C119.265 22.8746 118.474 23.3813 117.578 23.7433C116.668 24.1052 115.671 24.281 114.584 24.281H105.217V24.1845L107.689 23.8329C107.807 23.2572 107.898 22.3196 107.964 20.9994C108.023 19.6792 108.062 18.6451 108.062 17.8936V15.2566C108.062 13.3021 107.971 11.5544 107.793 10.0205L105.273 9.64819V9.54133V9.53788ZM110.104 14.5878V20.4617C110.104 21.3303 110.153 22.2093 110.244 23.0987C110.68 23.3055 111.171 23.4503 111.725 23.5468C112.269 23.6364 112.823 23.6847 113.374 23.6847C114.123 23.6847 114.876 23.5365 115.615 23.2538C116.358 22.9711 117.027 22.5506 117.62 21.9922C118.212 21.4337 118.686 20.7202 119.052 19.8619C119.408 19.0036 119.586 18.0142 119.586 16.8905C119.586 15.7667 119.397 14.7119 119.021 13.8605C118.634 13.0022 118.111 12.2955 117.438 11.7612C116.776 11.2132 116.006 10.803 115.145 10.541C114.284 10.2756 113.377 10.1515 112.426 10.1515C111.656 10.1515 110.962 10.2411 110.341 10.4065C110.303 10.6616 110.261 11.0236 110.233 11.4993C110.195 11.9681 110.153 12.5265 110.136 13.1608C110.104 13.795 110.097 14.2742 110.097 14.5878H110.104ZM132.051 9.33105C133.494 9.33105 134.748 9.5758 135.805 10.0446C136.861 10.5237 137.732 11.1477 138.405 11.9198C139.078 12.692 139.58 13.5124 139.897 14.381C140.214 15.2497 140.361 16.0804 140.361 16.8836C140.361 17.7936 140.193 18.6899 139.827 19.5723C139.472 20.4513 138.949 21.2545 138.255 21.9853C137.555 22.7092 136.694 23.2952 135.665 23.7329C134.637 24.1742 133.49 24.3879 132.228 24.3879C130.402 24.3879 128.858 23.9984 127.585 23.2159C126.32 22.4334 125.382 21.4579 124.779 20.3031C124.176 19.1518 123.87 18.028 123.87 16.9215C123.87 15.9529 124.068 15.0049 124.452 14.0984C124.828 13.1814 125.389 12.3576 126.111 11.6475C126.843 10.9236 127.721 10.3583 128.739 9.94808C129.757 9.53788 130.862 9.33105 132.051 9.33105ZM132.11 10.0343C131.054 10.0343 130.085 10.3066 129.185 10.8443C128.296 11.3924 127.585 12.1749 127.062 13.209C126.54 14.2362 126.271 15.4462 126.271 16.8353C126.271 18.3417 126.557 19.6102 127.132 20.6478C127.704 21.6923 128.436 22.4541 129.335 22.9539C130.245 23.4537 131.162 23.7054 132.131 23.7054C132.901 23.7054 133.644 23.5571 134.344 23.2641C135.045 22.9608 135.669 22.5403 136.223 21.9646C136.767 21.3993 137.202 20.703 137.509 19.8722C137.816 19.0415 137.973 18.1245 137.973 17.0973C137.973 15.7013 137.805 14.5844 137.488 13.7571C137.154 12.9264 136.68 12.2025 136.045 11.5785C135.512 11.0408 134.909 10.6616 134.219 10.4065C133.535 10.1618 132.835 10.0343 132.113 10.0343H132.11ZM141.249 9.64474V9.53788H146.387C146.722 9.99634 147.168 10.5444 147.712 11.189C148.245 11.8336 148.73 12.3921 149.145 12.8505L153.711 17.8729C154.314 18.5175 154.788 19.0242 155.116 19.3793C155.461 19.7412 155.896 20.1721 156.43 20.6788C156.468 20.21 156.499 19.7791 156.51 19.3793C156.531 18.9794 156.531 18.5968 156.531 18.2349V13.895C156.531 12.33 156.451 11.0305 156.304 10.017L153.826 9.64474V9.53788H159.891V9.64474L157.42 10.0343C157.291 10.9719 157.221 12.1749 157.221 13.6399V24.6705H157.113C156.074 23.371 155.049 22.1507 154.032 21.0166L147.796 14.1466C146.875 13.1711 146.088 12.399 145.436 11.8198C145.345 12.7299 145.296 13.5882 145.296 14.381V20.7512C145.296 21.6095 145.366 22.6264 145.505 23.8088L148.085 24.1811V24.2776H141.901V24.1811L144.411 23.8295C144.491 23.3503 144.55 22.6575 144.578 21.7681C144.617 20.8684 144.627 20.079 144.627 19.3758V14.45C144.627 13.864 144.617 13.278 144.596 12.7092C144.575 12.1335 144.536 11.5648 144.488 10.9994L143.135 10.0136L141.256 9.64129L141.249 9.64474ZM167.926 24.281H160.24V24.1845L162.718 23.8122C162.837 22.9711 162.917 21.9543 162.976 20.7719C163.035 19.5896 163.067 18.4279 163.067 17.2938V15.6047C163.067 13.2986 162.969 11.4338 162.76 9.99634L160.24 9.64474V9.53788H167.926V9.64474L165.385 9.99634C165.304 10.6409 165.256 11.2373 165.217 11.7647C165.186 12.2818 165.158 12.9264 165.127 13.6709C165.095 14.4224 165.088 15.1256 165.088 15.7805V18.0073C165.088 18.4175 165.099 19.0828 165.127 20.0204C165.165 20.9477 165.207 21.7405 165.256 22.3748C165.304 23.0194 165.353 23.5089 165.406 23.8295L167.926 24.1811V24.2776V24.281ZM168.745 20.7547L169.515 23.2366C169.902 23.4124 170.355 23.5502 170.868 23.6571C171.391 23.764 171.847 23.8122 172.22 23.8122C172.726 23.8122 173.2 23.7226 173.625 23.5468C174.05 23.371 174.385 23.1469 174.664 22.8815C174.932 22.6092 175.138 22.3059 175.277 21.9646C175.417 21.6337 175.493 21.2993 175.493 20.9787C175.493 20.3134 175.267 19.7585 174.81 19.2966C174.346 18.8381 173.587 18.2624 172.516 17.5489C171.45 16.8353 170.679 16.239 170.195 15.7702C169.78 15.3393 169.473 14.9188 169.268 14.4913C169.069 14.0708 168.961 13.5916 168.961 13.0746C168.961 12.4886 169.118 11.9233 169.445 11.3441C169.763 10.7788 170.254 10.2997 170.916 9.91706C171.579 9.54477 172.398 9.35174 173.367 9.35174C173.813 9.35174 174.277 9.37242 174.772 9.42068C175.277 9.4586 175.612 9.47928 175.81 9.47928C175.967 9.46894 176.117 9.46894 176.264 9.46894C176.403 9.4586 176.522 9.4586 176.598 9.44826C176.689 9.43791 176.776 9.42757 176.867 9.41723L176.926 12.8574H176.797L176.156 10.5237C175.218 10.1135 174.395 9.90672 173.695 9.90672C173.112 9.90672 172.59 10.0239 172.123 10.2376C171.659 10.4514 171.293 10.7547 171.035 11.1373C170.777 11.5199 170.648 11.937 170.648 12.4162C170.648 12.8953 170.826 13.3641 171.171 13.7847C171.516 14.1949 171.98 14.5947 172.583 14.9946C173.186 15.3945 173.827 15.815 174.521 16.2562C175.211 16.6975 175.765 17.1249 176.18 17.5351C176.982 18.3279 177.386 19.2552 177.386 20.2997C177.386 20.896 177.229 21.5027 176.922 22.1266C176.605 22.7609 176.082 23.2883 175.34 23.7295C174.597 24.1604 173.639 24.3844 172.475 24.3844C172.06 24.3844 171.554 24.3534 170.962 24.3052C170.359 24.2569 169.923 24.2362 169.648 24.2362C169.519 24.2362 169.421 24.2362 169.351 24.2466C169.282 24.2569 169.163 24.2672 169.017 24.2776C168.867 24.2983 168.78 24.2983 168.759 24.2983L168.591 20.7512H168.741L168.745 20.7547ZM180.377 9.53788H189.22C189.753 9.53788 190.248 9.52754 190.691 9.49996C191.144 9.46894 191.719 9.42068 192.42 9.35174L192.657 12.6161H192.538L191.779 10.2411C191.165 10.1342 190.524 10.0756 189.851 10.0756C189.269 10.0756 188.746 10.1066 188.268 10.1652C187.794 10.2342 187.282 10.3307 186.728 10.4686C186.679 11.0925 186.637 11.6992 186.609 12.2749C186.578 12.8609 186.56 13.3986 186.55 13.8881C186.54 14.3879 186.529 14.7188 186.529 14.905V18.2452C186.529 19.1242 186.56 20.1101 186.62 21.1959C186.679 22.2886 186.759 23.1607 186.846 23.8157L189.356 24.188V24.2845H181.659V24.188L184.138 23.8157C184.347 22.33 184.455 20.5341 184.455 18.421V14.7774C184.455 14.0363 184.434 13.2917 184.406 12.561C184.368 11.8267 184.309 11.1339 184.228 10.4686C183.835 10.3617 183.378 10.2824 182.855 10.2135C182.332 10.1549 181.837 10.117 181.374 10.0963C180.631 10.0963 179.903 10.1652 179.181 10.2824L178.449 12.6747H178.31L178.526 9.37242C178.735 9.38276 179.031 9.41034 179.415 9.46894C179.802 9.5172 180.115 9.53788 180.373 9.53788H180.377Z" fill="white"/>
<path d="M74.3516 9.20682H81.7622C81.9505 9.20682 82.0969 9.35505 82.0969 9.53774V9.6446C82.0969 9.8204 81.9574 9.96863 81.7797 9.97552L79.3501 10.2892C79.3292 10.4271 79.3118 10.5925 79.2909 10.789C79.2595 11.1131 79.2316 11.5026 79.2107 11.9714C79.1793 12.4402 79.1619 12.8607 79.1514 13.2399C79.141 13.6122 79.1305 13.9741 79.1305 14.3257C79.1305 14.6394 79.141 14.9703 79.1514 15.2944C79.1619 15.5598 79.1723 15.8321 79.1828 16.1354C79.6185 16.2044 80.1309 16.263 80.7339 16.2906C81.466 16.3388 82.3234 16.3595 83.3134 16.3595C83.8467 16.3595 84.3208 16.3595 84.7356 16.3492C85.1887 16.3388 85.6349 16.3181 86.0706 16.3009C86.4959 16.2802 86.9002 16.263 87.2767 16.2216C87.5625 16.1906 87.8483 16.163 88.1376 16.1251C88.1481 15.87 88.169 15.5977 88.176 15.315C88.1864 14.9531 88.1969 14.5429 88.1969 14.0741C88.1969 13.7811 88.1864 13.5157 88.176 13.2813C88.176 13.0158 88.1655 12.7539 88.1446 12.4815C88.1342 12.2265 88.1132 11.9817 88.0958 11.7473C88.0854 11.5336 88.0644 11.3371 88.047 11.1889C88.0366 11.051 88.0156 10.8752 87.9878 10.6511C87.9773 10.5236 87.9564 10.3961 87.9494 10.2685L85.5094 9.97552C85.3421 9.95484 85.2131 9.81006 85.2131 9.6446V9.53774C85.2131 9.3516 85.363 9.20682 85.5477 9.20682H92.9375C92.9758 9.20682 93.0177 9.21717 93.056 9.22751C93.0874 9.21717 93.1257 9.20682 93.1641 9.20682H104.012C104.2 9.20682 104.346 9.35505 104.346 9.53085L104.604 12.647C104.625 12.8331 104.486 12.9986 104.298 13.0089H104.109C103.942 13.0089 103.813 12.9021 103.775 12.7435L103.123 10.5339C102.896 10.5236 102.67 10.5133 102.44 10.5029C102.143 10.4926 101.809 10.4926 101.432 10.4926C100.78 10.4926 100.198 10.5133 99.6824 10.5615C99.2676 10.5925 98.8911 10.6408 98.567 10.7097C98.5182 11.1786 98.4763 11.6784 98.4484 12.1954C98.4171 12.8021 98.3996 13.4467 98.3996 14.1499C98.3996 14.6084 98.3996 15.0014 98.4206 15.3219C98.431 15.5563 98.4415 15.7632 98.4519 15.9562C98.8667 15.9872 99.2118 15.9941 99.4802 16.0148C99.7974 16.0251 100.034 16.0355 100.191 16.0355C100.578 16.0355 100.962 16.0251 101.338 15.9976C101.655 15.9872 101.969 15.9596 102.297 15.9286L102.691 14.4429C102.729 14.2878 102.868 14.1878 103.018 14.1878H103.196C103.384 14.1878 103.531 14.3361 103.531 14.5188V18.8173C103.531 18.9931 103.381 19.1482 103.196 19.1482H103.018C102.851 19.1482 102.711 19.0207 102.691 18.8655L102.276 17.3006C102.06 17.2799 101.823 17.2626 101.586 17.2523C101.279 17.242 100.944 17.2316 100.589 17.2316C100.136 17.2316 99.7207 17.242 99.3338 17.2626C99.0271 17.273 98.7412 17.2937 98.4554 17.3212C98.424 17.6142 98.4066 17.9072 98.3962 18.1796C98.3857 18.5518 98.3857 18.9207 98.4066 19.2826V19.3137C98.4066 19.7618 98.4171 20.172 98.4275 20.5546C98.438 20.9648 98.4484 21.3267 98.4589 21.6473C98.4694 21.9403 98.4798 22.223 98.4972 22.4987C98.5077 22.6746 98.5286 22.8504 98.5356 23.0055C98.8807 23.0951 99.278 23.1606 99.6998 23.2123C100.233 23.2812 100.826 23.3088 101.488 23.3088C101.882 23.3088 102.23 23.2985 102.534 23.2778C102.76 23.2674 102.987 23.2571 103.186 23.2399L103.935 21.0234C103.984 20.8752 104.113 20.789 104.252 20.789H104.402C104.58 20.789 104.737 20.9372 104.737 21.1199C104.737 21.1406 104.737 21.1509 104.726 21.1682L104.51 24.305C104.489 24.4808 104.343 24.6084 104.176 24.6084H93.1989C93.1606 24.6084 93.1188 24.6084 93.0804 24.5877C93.049 24.6084 93.0107 24.6084 92.9619 24.6084H85.5512C85.363 24.6084 85.2166 24.4601 85.2166 24.2774V24.1809C85.2166 23.9948 85.356 23.8569 85.5338 23.85L87.9041 23.526C87.9843 23.0468 88.0435 22.5401 88.0923 22.0024C88.1411 21.3785 88.183 20.7235 88.2004 20.0686V20.0582C88.2004 19.9031 88.2108 19.717 88.2108 19.4929C88.2108 19.2688 88.2004 19.0241 88.2004 18.8104V18.8C88.1899 18.5656 88.1795 18.3106 88.169 18.0486C88.1586 17.8935 88.1481 17.7349 88.1376 17.5694H79.1654C79.1549 17.7556 79.1549 17.9693 79.1445 18.2037C79.1445 18.5346 79.134 19.0034 79.134 19.5998C79.134 19.941 79.1445 20.2926 79.1549 20.6339C79.1654 20.9958 79.1863 21.3853 79.2037 21.8059V21.8162C79.2246 22.2264 79.2525 22.5987 79.2943 22.9193C79.3153 23.1434 79.3431 23.3502 79.3745 23.526L81.8041 23.85C81.9714 23.8707 82.1004 24.0155 82.1004 24.1809V24.2774C82.1004 24.4636 81.9505 24.6084 81.7657 24.6084H74.3341C74.1459 24.6084 73.9995 24.4601 73.9995 24.2774V24.1809C73.9995 24.0051 74.1285 23.8672 74.2958 23.85L76.0944 23.5363C76.1154 23.4467 76.1258 23.3398 76.1328 23.2226C76.1537 22.9882 76.1816 22.7056 76.213 22.3643V22.354C76.2443 21.992 76.2618 21.6197 76.2827 21.2406C76.314 20.8407 76.3315 20.4408 76.3419 20.0306V20.0203C76.3628 19.5791 76.3733 19.1896 76.3803 18.8276C76.3907 18.5036 76.3907 18.1727 76.3907 17.8521V13.7983C76.3803 13.6225 76.3698 13.3881 76.3594 13.0848C76.3489 12.7918 76.3384 12.4988 76.321 12.1851C76.3001 11.9128 76.2827 11.6094 76.2618 11.3061C76.2304 11.0028 76.2025 10.7477 76.1816 10.5443C76.1711 10.4478 76.1502 10.3478 76.1432 10.2616L74.3063 9.96863C74.1389 9.94795 74.0204 9.80317 74.0204 9.6446V9.53774C74.0204 9.3516 74.1703 9.20682 74.3551 9.20682H74.3516ZM78.7506 9.86866H76.7532C76.7532 9.88935 76.7637 9.89969 76.7637 9.90658C76.7951 10.0548 76.823 10.2375 76.8439 10.465C76.8752 10.6891 76.9031 10.9545 76.9345 11.2475C76.9554 11.5302 76.9728 11.8335 76.9938 12.1472C77.0147 12.4402 77.0251 12.7435 77.0321 13.0572C77.0426 13.3606 77.053 13.595 77.0635 13.7811V17.8555C77.0635 18.121 77.0635 18.4519 77.053 18.8517C77.0426 19.224 77.0321 19.6239 77.0147 20.0548C76.9938 20.496 76.9833 20.9062 76.9554 21.275C76.9345 21.6956 76.9066 22.0748 76.8857 22.4195C76.8543 22.7504 76.8264 23.0434 76.8055 23.2985C76.7742 23.5329 76.7567 23.719 76.7254 23.8638C76.7254 23.8948 76.7149 23.9224 76.7044 23.9534H78.7785C78.7785 23.9327 78.768 23.9224 78.768 23.9052C78.7087 23.6501 78.6599 23.3467 78.6181 23.0055C78.5798 22.6746 78.5484 22.2816 78.5275 21.8541C78.5066 21.4439 78.4891 21.0441 78.4787 20.6615C78.4682 20.2616 78.4578 19.91 78.4578 19.6067C78.4578 19.1172 78.4578 18.6587 78.4682 18.2002C78.4787 17.8107 78.4891 17.4867 78.4996 17.242V17.2316C78.4996 17.0558 78.6495 16.9007 78.8342 16.9007H79.9392C79.5035 16.8628 79.1201 16.8111 78.7924 16.7456C78.6425 16.7146 78.524 16.5905 78.517 16.4319C78.4961 16.0424 78.4857 15.6701 78.4787 15.3185C78.4682 14.929 78.4578 14.6049 78.4578 14.3326C78.4578 14.0189 78.4682 13.657 78.4787 13.2296C78.4996 12.8194 78.5101 12.3885 78.5379 11.9404C78.5693 11.4716 78.5867 11.0717 78.6286 10.7373C78.6599 10.4064 78.6983 10.141 78.7366 9.9445C78.7366 9.91348 78.7471 9.89624 78.7471 9.87556L78.7506 9.86866ZM87.3359 16.8869C87.2767 16.8869 87.2174 16.8973 87.1477 16.8973H88.4514C88.6187 16.8973 88.7686 17.0351 88.786 17.2109C88.7965 17.4764 88.8174 17.7383 88.8348 18.0107C88.8453 18.2657 88.8557 18.5277 88.8662 18.7931C88.8662 19.0758 88.8766 19.3102 88.8766 19.4963C88.8766 19.6928 88.8662 19.8859 88.8662 20.0927C88.8453 20.7856 88.8069 21.4508 88.7581 22.0679C88.6988 22.6918 88.6187 23.2985 88.5211 23.8845C88.5211 23.9052 88.5106 23.9327 88.5002 23.9534H90.5567C90.5463 23.9327 90.5358 23.9224 90.5358 23.9052C90.4278 23.3778 90.3476 22.7332 90.2883 21.9713C90.2395 21.1992 90.2082 20.3099 90.2082 19.293V15.9217C90.2082 15.4047 90.2186 14.8359 90.2291 14.2223C90.25 13.6467 90.2674 13.0607 90.2883 12.4747C90.3197 11.8783 90.3476 11.3716 90.3859 10.951C90.4243 10.5202 90.4766 10.1789 90.5358 9.92382C90.5358 9.90313 90.5463 9.89279 90.5463 9.87556H88.5594C88.5699 9.89624 88.5699 9.91348 88.5803 9.93416C88.6117 10.1892 88.6396 10.403 88.6605 10.5788C88.6814 10.7442 88.6988 10.9304 88.7198 11.1268C88.7407 11.3026 88.7581 11.4991 88.7686 11.7128C88.7895 11.9093 88.7999 12.161 88.8174 12.4471C88.8383 12.7125 88.8487 12.9848 88.8487 13.2675C88.8592 13.5605 88.8696 13.8328 88.8696 14.0775C88.8696 14.5084 88.8592 14.929 88.8487 15.3461C88.8278 15.7459 88.8104 16.1182 88.7895 16.4319C88.779 16.587 88.6605 16.7249 88.5036 16.7456C88.1481 16.8042 87.7612 16.8524 87.3394 16.8938L87.3359 16.8869ZM93.056 9.95829C93.0246 9.96863 92.9968 9.97897 92.9654 9.97897L91.1458 10.2616C91.1145 10.4685 91.0866 10.7097 91.0552 11.0028C91.0169 11.413 90.9855 11.9128 90.9576 12.4988C90.9262 13.0951 90.9193 13.6708 90.8983 14.2396C90.8879 14.767 90.8879 15.3254 90.8879 15.9217V19.293C90.8879 20.2995 90.9088 21.1785 90.9576 21.9231C91.0064 22.5574 91.0657 23.0951 91.1458 23.5467L93.0142 23.8603C93.0351 23.8603 93.0525 23.8707 93.0734 23.881C93.1048 23.8707 93.1327 23.8603 93.1641 23.8603L95.3392 23.5363C95.3496 23.457 95.3705 23.3709 95.3775 23.2709C95.3984 23.0641 95.4159 22.8297 95.4472 22.547C95.4681 22.254 95.4856 21.9507 95.5065 21.6577C95.5274 21.3267 95.5448 20.9924 95.5657 20.6615C95.5762 20.2995 95.5971 19.9789 95.6041 19.6928C95.6145 19.3895 95.625 19.1275 95.6355 18.9C95.6355 18.6656 95.6459 18.4415 95.6459 18.2347C95.6564 18.0796 95.6564 17.8935 95.6564 17.6694V15.1289C95.6564 14.9324 95.6459 14.7394 95.6459 14.5532C95.6459 14.3292 95.6355 14.0741 95.625 13.7708C95.6145 13.4778 95.5936 13.1848 95.5867 12.8607C95.5657 12.5677 95.5553 12.254 95.5379 11.9231C95.5065 11.5991 95.4891 11.2889 95.4577 10.9959C95.4368 10.7718 95.4193 10.5374 95.388 10.2927L93.1257 9.96863C93.0944 9.96863 93.0769 9.95829 93.056 9.95829ZM103.708 9.86866H103.175C103.255 9.879 103.325 9.879 103.402 9.88935C103.541 9.89969 103.66 9.98586 103.698 10.1237L103.736 10.2513L103.705 9.86866H103.708ZM99.895 9.86866H96.0119C96.0224 9.89969 96.0224 9.92726 96.0328 9.95829C96.0642 10.2616 96.1025 10.5822 96.1304 10.9338C96.1618 11.2647 96.1897 11.5888 96.2106 11.8818C96.2211 12.1954 96.242 12.5057 96.2594 12.8297C96.2699 13.133 96.2908 13.4364 96.2977 13.7397C96.3082 14.0327 96.3082 14.2982 96.3187 14.5395C96.3291 14.8049 96.3291 14.9979 96.3291 15.1255V17.6659C96.3291 17.7935 96.3291 17.99 96.3187 18.2416C96.3187 18.4553 96.3082 18.6828 96.3082 18.9172C96.2977 19.162 96.2873 19.4343 96.2768 19.717C96.2664 20.0203 96.2455 20.334 96.2385 20.6856C96.2176 21.0475 96.2001 21.3888 96.1792 21.6921C96.1583 22.0231 96.1409 22.3264 96.12 22.5918C96.0886 22.8745 96.0712 23.1296 96.0398 23.3433C96.0189 23.5673 95.991 23.7431 95.9596 23.8914C95.9596 23.9121 95.9492 23.9293 95.9387 23.95H100.435C100.149 23.9293 99.8811 23.9121 99.6266 23.881C99.0619 23.8224 98.5704 23.7259 98.1347 23.5984C98.0058 23.5604 97.9082 23.4501 97.8872 23.3157C97.8559 23.0813 97.8384 22.8262 97.8175 22.5436C97.7966 22.2885 97.7862 21.9955 97.7792 21.6852C97.7687 21.3612 97.7583 20.9924 97.7478 20.5822C97.7374 20.1995 97.7269 19.7893 97.7269 19.3309V19.3205C97.706 18.9379 97.706 18.5587 97.7164 18.1692C97.7374 17.7797 97.7652 17.3867 97.8071 16.9869C97.828 16.8387 97.9465 16.7146 98.1034 16.6939C98.2916 16.6732 98.4903 16.656 98.6855 16.6456C98.5077 16.6353 98.3195 16.6249 98.1208 16.6146C97.9639 16.6042 97.8245 16.4767 97.8036 16.3112C97.7722 16.0389 97.7548 15.7149 97.7443 15.353C97.7234 14.9703 97.7234 14.5705 97.7234 14.1499C97.7234 13.4571 97.7339 12.7918 97.7722 12.1575C97.8036 11.5233 97.8524 10.9373 97.9221 10.3892C97.943 10.2513 98.0406 10.1444 98.1905 10.1065C98.6053 10.0169 99.0898 9.94105 99.6231 9.89969C99.7138 9.88935 99.8009 9.879 99.8915 9.86866H99.895ZM102.603 16.5629C102.405 16.5836 102.217 16.6008 102.032 16.6215C102.22 16.6318 102.408 16.6525 102.586 16.6697C102.705 16.6801 102.813 16.7663 102.861 16.8766V16.3974C102.813 16.487 102.711 16.5525 102.603 16.5629ZM103.471 23.881C103.224 23.9121 102.949 23.9293 102.642 23.95H103.858L103.907 23.1985L103.768 23.6397C103.729 23.7673 103.618 23.8741 103.471 23.8845V23.881ZM105.28 9.20682H113.66C114.451 9.20682 115.19 9.26542 115.874 9.38263C116.564 9.49983 117.198 9.67563 117.77 9.89969C118.335 10.1341 118.847 10.4064 119.3 10.7097C119.753 11.0131 120.151 11.3544 120.485 11.737C120.82 12.1196 121.109 12.5091 121.346 12.9193C121.583 13.3295 121.771 13.7604 121.918 14.1982C122.057 14.6394 122.165 15.0875 122.235 15.5288C122.315 15.9872 122.354 16.4388 122.354 16.8869C122.354 17.435 122.305 17.9624 122.204 18.4795C122.113 18.9965 121.977 19.486 121.789 19.9548C121.789 19.9651 121.778 19.9755 121.778 19.9858C121.59 20.4546 121.374 20.8959 121.106 21.2957C120.837 21.7059 120.524 22.0885 120.179 22.4402C119.823 22.7918 119.447 23.1054 119.032 23.3674C118.617 23.6397 118.181 23.8672 117.697 24.0499V24.0603C117.233 24.2464 116.728 24.3843 116.215 24.4808C115.692 24.5704 115.149 24.6187 114.584 24.6187H105.218C105.03 24.6187 104.873 24.4705 104.873 24.2878V24.1913C104.873 24.0155 105.012 23.8672 105.19 23.8603L107.403 23.5467C107.442 23.3019 107.473 23.0089 107.511 22.6677C107.55 22.2092 107.592 21.6404 107.63 20.9855V20.9751C107.661 20.3099 107.689 19.7342 107.7 19.2275C107.72 18.738 107.731 18.2899 107.731 17.8969V15.2599C107.731 14.274 107.71 13.3537 107.661 12.4953C107.623 11.7335 107.571 10.9993 107.494 10.3064L105.232 9.98242C105.064 9.95139 104.935 9.81696 104.935 9.6515V9.54464C104.935 9.3585 105.092 9.21372 105.28 9.21372V9.20682ZM113.66 9.86866H113.503C113.632 9.88935 113.761 9.89969 113.89 9.91692C114.354 9.98586 114.81 10.0927 115.264 10.2306C115.717 10.3685 116.142 10.5443 116.539 10.758C116.954 10.9648 117.331 11.2165 117.676 11.4991C118.031 11.7921 118.348 12.1231 118.624 12.4953C118.899 12.8676 119.147 13.2778 119.345 13.7259C119.544 14.1741 119.691 14.6739 119.792 15.2013C119.889 15.7287 119.941 16.294 119.941 16.8904C119.941 17.4867 119.903 18.0141 119.802 18.5312C119.711 19.0482 119.565 19.5274 119.377 19.9858C119.189 20.434 118.972 20.8442 118.725 21.2164C118.467 21.5991 118.181 21.93 117.864 22.2333C117.557 22.516 117.223 22.7814 116.867 23.0055C116.522 23.2192 116.146 23.4053 115.762 23.5639C115.368 23.7121 114.971 23.8293 114.577 23.8948C114.486 23.9155 114.399 23.9327 114.309 23.9431H114.594C115.128 23.9431 115.633 23.9052 116.107 23.8155C116.581 23.7259 117.027 23.6018 117.46 23.426C117.895 23.2606 118.289 23.0537 118.666 22.809C119.042 22.5642 119.387 22.2816 119.711 21.9679C120.029 21.6439 120.304 21.2923 120.551 20.9234C120.789 20.5512 120.998 20.1513 121.165 19.7307C121.165 19.7204 121.165 19.7101 121.175 19.7101C121.343 19.2688 121.472 18.8207 121.552 18.3519C121.643 17.8831 121.681 17.3936 121.681 16.8766C121.681 16.4457 121.649 16.0355 121.583 15.6253C121.524 15.2151 121.426 14.8049 121.287 14.3947C121.158 13.9948 120.991 13.6122 120.775 13.2434C120.558 12.8711 120.301 12.5091 119.994 12.1679C119.697 11.8266 119.342 11.5233 118.938 11.2509C118.523 10.9786 118.049 10.7235 117.526 10.5098C117.003 10.303 116.421 10.1375 115.776 10.0307C115.135 9.92382 114.431 9.86522 113.671 9.86522L113.66 9.86866ZM111.405 9.86866H108.104C108.125 9.90658 108.135 9.9376 108.135 9.97552C108.226 10.7477 108.292 11.5784 108.334 12.4574C108.383 13.3468 108.404 14.274 108.404 15.253V17.89C108.404 18.2416 108.393 18.6897 108.372 19.2378C108.362 19.7652 108.334 20.3512 108.303 21.0062C108.264 21.6715 108.222 22.2368 108.174 22.7263C108.135 23.2157 108.076 23.6053 108.017 23.8879C108.017 23.9086 108.017 23.9258 108.006 23.9465H112.217C112.029 23.9258 111.851 23.8983 111.673 23.8672C111.387 23.819 111.109 23.7604 110.854 23.6811C110.586 23.5915 110.342 23.5053 110.112 23.3984C110.004 23.3502 109.934 23.2502 109.913 23.133C109.875 22.6746 109.833 22.223 109.805 21.7852C109.784 21.3267 109.774 20.8855 109.774 20.4546V14.5808C109.774 14.4429 109.774 14.2499 109.784 13.9741C109.795 13.7294 109.805 13.4467 109.815 13.1434C109.826 12.8125 109.847 12.5091 109.854 12.2437C109.875 11.9507 109.892 11.6956 109.903 11.4716L109.913 11.4612C109.923 11.2372 109.944 11.02 109.972 10.827C109.993 10.6408 110.011 10.4857 110.032 10.3478C110.052 10.2203 110.14 10.1134 110.279 10.0755C110.607 9.98586 110.952 9.92037 111.307 9.879C111.339 9.86866 111.377 9.86866 111.405 9.85832V9.86866ZM110.446 14.5877V20.4615C110.446 20.9028 110.457 21.3302 110.478 21.7507C110.499 22.123 110.527 22.5022 110.568 22.8745C110.725 22.9434 110.886 22.9917 111.042 23.0503C111.279 23.1192 111.527 23.1675 111.785 23.2157C112.053 23.2537 112.318 23.295 112.587 23.3123C112.855 23.3433 113.12 23.3502 113.388 23.3502C113.744 23.3502 114.099 23.3123 114.455 23.2537C114.81 23.1847 115.166 23.0779 115.511 22.94C115.856 22.8021 116.194 22.6366 116.508 22.4402C116.825 22.2437 117.122 22.0093 117.397 21.7473C117.683 21.4922 117.93 21.1889 118.157 20.8579C118.383 20.5167 118.582 20.1444 118.749 19.7342C118.927 19.324 119.056 18.8828 119.136 18.414C119.227 17.9452 119.265 17.4384 119.265 16.8904C119.265 16.3423 119.227 15.8045 119.126 15.3185C119.035 14.8393 118.91 14.4016 118.721 13.9879V13.9983C118.544 13.5881 118.328 13.2158 118.08 12.8952C117.843 12.5643 117.557 12.2713 117.25 12.0162C116.923 11.7508 116.588 11.5267 116.222 11.3406C115.867 11.1441 115.473 10.989 115.065 10.8614C114.65 10.7339 114.225 10.6374 113.789 10.5788C113.353 10.5098 112.9 10.4822 112.444 10.4822C112.067 10.4822 111.722 10.5029 111.387 10.5408C111.13 10.5788 110.893 10.6201 110.666 10.6684C110.655 10.7373 110.645 10.8166 110.635 10.9028C110.614 11.0682 110.603 11.2751 110.575 11.5198V11.5302C110.565 11.7749 110.544 12.03 110.527 12.2816C110.516 12.5746 110.495 12.8676 110.488 13.171C110.478 13.5019 110.467 13.7776 110.457 14.0017C110.446 14.2154 110.446 14.4016 110.446 14.5877ZM132.058 9C132.8 9 133.491 9.0586 134.142 9.18614C134.794 9.31368 135.397 9.49983 135.951 9.74457C136.506 9.99965 137.008 10.2823 137.454 10.6029C137.907 10.9338 138.315 11.2958 138.67 11.706C139.015 12.1058 139.322 12.516 139.58 12.9469C139.838 13.3778 140.054 13.8156 140.221 14.2671C140.378 14.7256 140.507 15.1668 140.587 15.5977C140.668 16.0389 140.716 16.4664 140.716 16.8869C140.716 17.3661 140.668 17.8349 140.567 18.3037C140.476 18.7725 140.34 19.2413 140.152 19.6997C139.964 20.1582 139.737 20.5994 139.462 21.02C139.186 21.4405 138.869 21.83 138.503 22.2126C138.137 22.5953 137.733 22.9469 137.28 23.2468C136.833 23.5501 136.342 23.8121 135.809 24.0396C135.275 24.274 134.711 24.4395 134.107 24.5463C133.515 24.6635 132.891 24.7221 132.239 24.7221C131.301 24.7221 130.43 24.6153 129.632 24.4188C128.823 24.2119 128.091 23.9121 127.418 23.5018C126.767 23.0916 126.195 22.6332 125.7 22.1334C125.215 21.6266 124.811 21.0682 124.494 20.4615C124.177 19.8652 123.94 19.2688 123.783 18.6828C123.626 18.0865 123.546 17.5005 123.546 16.9248C123.546 16.4181 123.595 15.9183 123.703 15.4185C123.8 14.9186 123.95 14.4429 124.149 13.9707C124.149 13.9603 124.159 13.9603 124.159 13.95C124.358 13.4812 124.605 13.0331 124.891 12.6125C125.177 12.1817 125.515 11.7818 125.888 11.4026C125.899 11.4026 125.909 11.3923 125.909 11.3923C126.286 11.02 126.7 10.6891 127.143 10.3961C127.596 10.1031 128.091 9.84798 128.624 9.6446C129.147 9.43088 129.702 9.26198 130.284 9.16546C130.855 9.0586 131.448 9 132.061 9L132.058 9ZM134.013 9.84109C133.41 9.72389 132.759 9.66529 132.058 9.66529C131.486 9.66529 130.932 9.71354 130.399 9.81351C129.876 9.91003 129.36 10.0686 128.868 10.2616C128.384 10.4581 127.931 10.6925 127.516 10.9545C127.101 11.2268 126.725 11.5198 126.38 11.8645C126.38 11.8749 126.369 11.8749 126.369 11.8852C126.014 12.2265 125.707 12.5987 125.442 12.9883C125.184 13.3709 124.957 13.7811 124.78 14.2085C124.78 14.2189 124.769 14.2189 124.769 14.2292C124.581 14.6704 124.442 15.1082 124.354 15.5494C124.264 15.9976 124.215 16.4595 124.215 16.9283C124.215 17.4557 124.295 17.9831 124.431 18.5105C124.581 19.0586 124.797 19.6032 125.083 20.1616C125.369 20.7097 125.735 21.2164 126.188 21.6749C126.634 22.1334 127.157 22.5539 127.77 22.9365C128.373 23.3088 129.057 23.5811 129.796 23.7776C130.538 23.9638 131.357 24.0603 132.236 24.0603C132.849 24.0603 133.431 24.0017 133.986 23.9052C134.529 23.7983 135.052 23.6397 135.547 23.4364C136.032 23.2226 136.485 22.9779 136.9 22.7021C137.314 22.4195 137.68 22.1058 138.015 21.7645C138.35 21.4129 138.639 21.0406 138.893 20.6615C139.141 20.2719 139.357 19.8686 139.524 19.4584C139.692 19.0379 139.821 18.607 139.911 18.1796C139.991 17.759 140.03 17.3281 140.03 16.8904C140.03 16.5077 139.998 16.1182 139.922 15.7287C139.842 15.3288 139.733 14.9186 139.587 14.4981C139.43 14.0879 139.242 13.688 139.005 13.2951C138.768 12.9021 138.482 12.5126 138.154 12.1437C137.837 11.7818 137.471 11.4509 137.056 11.1475C136.642 10.8545 136.178 10.5891 135.673 10.3547C135.167 10.1306 134.616 9.96518 134.013 9.84798V9.84109ZM132.117 10.3685C131.622 10.3685 131.138 10.4374 130.685 10.565C130.231 10.6925 129.796 10.8787 129.37 11.1303C128.956 11.3957 128.579 11.6956 128.244 12.0679C127.91 12.4402 127.621 12.8676 127.366 13.3571C127.119 13.8466 126.93 14.374 126.801 14.9497C126.672 15.5357 126.613 16.1596 126.613 16.8352C126.613 17.5694 126.683 18.2416 126.822 18.8483C126.962 19.455 127.167 19.9996 127.436 20.4891C127.711 20.9889 128.018 21.4164 128.363 21.7783C128.708 22.1299 129.085 22.4333 129.51 22.6677C129.935 22.9021 130.371 23.0779 130.803 23.1951C131.235 23.3123 131.681 23.3709 132.138 23.3709C132.504 23.3709 132.86 23.3329 133.205 23.264C133.55 23.1951 133.888 23.0985 134.223 22.9503C134.55 22.8124 134.864 22.647 135.15 22.4436C135.446 22.2368 135.721 22.0024 135.979 21.7404C136.237 21.475 136.464 21.1751 136.67 20.8407C136.868 20.5167 137.046 20.1582 137.192 19.7549C137.342 19.3654 137.45 18.9448 137.527 18.5036C137.597 18.0624 137.635 17.5936 137.635 17.0972C137.635 16.4147 137.597 15.808 137.517 15.2702C137.436 14.7325 137.318 14.2637 137.171 13.8742V13.8845C137.015 13.4846 136.826 13.1124 136.6 12.7711C136.373 12.4298 136.105 12.1058 135.809 11.8128C135.561 11.5577 135.296 11.344 135.007 11.1682C134.721 10.9821 134.425 10.8373 134.107 10.7201C133.78 10.6029 133.456 10.5133 133.121 10.4547C132.793 10.3961 132.459 10.365 132.114 10.365L132.117 10.3685ZM130.507 9.91692C131.019 9.7687 131.563 9.7032 132.117 9.7032C132.494 9.7032 132.877 9.73423 133.243 9.79972C133.619 9.86866 133.985 9.96518 134.341 10.0927C134.707 10.2306 135.052 10.3961 135.38 10.5994C135.707 10.8132 136.011 11.0579 136.29 11.3337V11.344C136.624 11.668 136.914 12.0265 137.168 12.4092C137.415 12.7918 137.632 13.202 137.799 13.6398C137.977 14.081 138.106 14.5981 138.186 15.1737C138.276 15.7494 138.315 16.3836 138.315 17.0972C138.315 17.6246 138.276 18.1244 138.196 18.6104C138.116 19.0896 137.987 19.5481 137.83 19.9893C137.673 20.4202 137.475 20.82 137.248 21.1923C137.022 21.5646 136.764 21.8955 136.467 22.1989C136.182 22.4919 135.875 22.7573 135.54 22.9917C135.206 23.2157 134.857 23.4122 134.484 23.5673C134.118 23.7225 133.735 23.8397 133.348 23.9189C132.943 23.9982 132.546 24.0361 132.142 24.0361C131.629 24.0361 131.124 23.9672 130.629 23.8397C130.144 23.7018 129.66 23.5087 129.186 23.2433C128.712 22.9779 128.276 22.6366 127.882 22.2264C127.488 21.8266 127.15 21.3474 126.843 20.8097C126.547 20.2616 126.32 19.6584 126.17 18.9931C126.014 18.3278 125.944 17.6142 125.944 16.8352C125.944 16.1217 126.014 15.446 126.153 14.8118C126.292 14.1878 126.488 13.6018 126.767 13.0538C127.042 12.516 127.37 12.0369 127.746 11.6267C128.133 11.2061 128.555 10.8545 129.032 10.5615C129.496 10.2789 129.991 10.0617 130.514 9.91692H130.507ZM140.919 9.6446V9.53774C140.919 9.3516 141.069 9.20682 141.253 9.20682H146.391C146.51 9.20682 146.618 9.27577 146.677 9.36194C146.855 9.59634 147.043 9.85143 147.249 10.1031C147.458 10.3581 147.695 10.6511 147.97 10.9717C147.97 10.9821 147.981 10.9924 147.981 10.9924C148.239 11.2958 148.486 11.5888 148.723 11.8611C148.971 12.1541 149.197 12.4092 149.396 12.6332H149.406L153.962 17.6453C153.962 17.6453 153.973 17.6556 153.983 17.6659C154.15 17.8521 154.408 18.1244 154.715 18.4588C154.984 18.7311 155.2 18.9655 155.367 19.1516C155.545 19.3378 155.743 19.5343 155.96 19.748C156.019 19.8169 156.089 19.8755 156.148 19.9445C156.169 19.7307 156.179 19.5446 156.179 19.3688C156.19 19.162 156.19 18.9689 156.2 18.7828V13.8983C156.2 13.1055 156.179 12.4023 156.141 11.768C156.109 11.2406 156.071 10.7511 156.001 10.3133L153.777 9.98242C153.61 9.95139 153.492 9.80662 153.492 9.6515V9.54464C153.492 9.3585 153.642 9.21372 153.826 9.21372H159.891C159.951 9.21372 160.02 9.2344 160.069 9.26198C160.118 9.23095 160.177 9.21372 160.247 9.21372H167.933C168.121 9.21372 168.268 9.36194 168.268 9.54464V9.6515C168.268 9.8273 168.128 9.97552 167.961 9.98242L165.699 10.2961C165.667 10.5202 165.65 10.7373 165.629 10.92C165.598 11.213 165.58 11.506 165.559 11.7887C165.538 12.061 165.528 12.3643 165.51 12.678C165.5 12.9917 165.479 13.333 165.472 13.6949C165.462 14.0672 165.451 14.4291 165.441 14.7704C165.43 15.0841 165.43 15.415 165.43 15.7873V18.0141C165.43 18.2588 165.43 18.5415 165.441 18.8448C165.451 19.1689 165.462 19.5584 165.472 20.0169C165.493 20.4581 165.51 20.8752 165.531 21.2785C165.552 21.6611 165.57 22.0196 165.601 22.3643C165.632 22.7056 165.65 22.9882 165.671 23.2054C165.692 23.3226 165.702 23.4398 165.709 23.5467L167.982 23.8603C168.149 23.881 168.268 24.0258 168.268 24.1913V24.2878C168.268 24.4739 168.118 24.6187 167.933 24.6187H160.247C160.059 24.6187 159.902 24.4705 159.902 24.2878V24.1913C159.902 24.0155 160.041 23.8672 160.209 23.8603L162.433 23.5294C162.471 23.1882 162.513 22.8159 162.541 22.4057C162.589 21.8886 162.621 21.3405 162.649 20.7649C162.68 20.1685 162.708 19.5929 162.718 19.0172C162.729 18.4795 162.739 17.9038 162.739 17.3075V15.6184C162.739 14.4567 162.718 13.4192 162.659 12.5022C162.621 11.6922 162.551 10.9476 162.471 10.303L160.198 9.98931C160.149 9.97897 160.108 9.95829 160.069 9.94105C160.02 9.97208 159.972 9.97897 159.919 9.98931L157.716 10.3409C157.668 10.7408 157.626 11.182 157.608 11.6784C157.577 12.2644 157.56 12.9193 157.56 13.6536V24.6842C157.56 24.8703 157.41 25.0151 157.225 25.0151H157.117C156.998 25.0151 156.901 24.9565 156.841 24.8669C156.336 24.243 155.834 23.6259 155.311 23.0089C154.806 22.4022 154.293 21.8162 153.781 21.2509C153.781 21.2406 153.771 21.2302 153.771 21.2302L147.566 14.3912C147.102 13.9017 146.688 13.4743 146.301 13.102C146.091 12.8952 145.907 12.7125 145.718 12.5367C145.698 12.7504 145.687 12.9676 145.67 13.171C145.649 13.5812 145.638 13.9914 145.638 14.3912V20.7614C145.638 21.1923 145.659 21.6508 145.687 22.1506C145.718 22.5815 145.757 23.0399 145.816 23.5294L148.138 23.8603C148.305 23.8914 148.423 24.0258 148.423 24.1913V24.2878C148.423 24.4739 148.274 24.6187 148.089 24.6187H141.905C141.717 24.6187 141.57 24.4705 141.57 24.2878V24.1913C141.57 24.0155 141.71 23.8672 141.877 23.8603L144.119 23.5467C144.139 23.3605 144.157 23.1571 144.178 22.9227C144.209 22.5711 144.237 22.1885 144.247 21.7714C144.268 21.313 144.279 20.9028 144.286 20.5098C144.296 20.1478 144.296 19.7756 144.296 19.386V13.5812C144.286 13.2985 144.275 13.0158 144.265 12.7228C144.254 12.4505 144.244 12.1644 144.227 11.8714C144.206 11.637 144.195 11.4026 144.167 11.1786L143.003 10.3271L141.194 9.96518C141.037 9.93416 140.926 9.79972 140.926 9.64116L140.919 9.6446ZM146.224 9.86866H143.498L144.683 10.7373C144.763 10.7856 144.812 10.8752 144.823 10.9717C144.854 11.2647 144.871 11.5474 144.892 11.83C144.913 12.1024 144.924 12.3954 144.931 12.6884C144.941 12.971 144.952 13.264 144.952 13.557C144.962 13.7122 144.962 13.85 144.962 13.9776C144.973 13.7053 144.983 13.4192 144.993 13.1262C145.025 12.6953 145.053 12.2575 145.102 11.8059C145.112 11.7266 145.133 11.6577 145.192 11.5922C145.321 11.4543 145.527 11.444 145.666 11.5715C145.994 11.8645 146.367 12.2058 146.771 12.6056C147.165 12.9952 147.59 13.4364 148.047 13.9155L148.057 13.9259L154.262 20.7649L154.283 20.7856C154.795 21.3509 155.311 21.9472 155.824 22.5642C156.169 22.9744 156.524 23.4053 156.89 23.8431V13.6398C156.89 12.9159 156.901 12.2437 156.939 11.6267C156.97 11.02 157.019 10.4753 157.089 9.98586C157.089 9.94795 157.11 9.90658 157.127 9.86866H156.615C156.625 9.89969 156.636 9.92726 156.636 9.96518C156.716 10.4822 156.775 11.0682 156.814 11.7232C156.852 12.3885 156.873 13.1124 156.873 13.8914V18.7966C156.862 18.9931 156.862 19.1861 156.852 19.3826C156.841 19.5963 156.831 19.8135 156.821 20.0169C156.81 20.2513 156.789 20.4753 156.772 20.6994C156.761 20.7683 156.733 20.8373 156.681 20.8959C156.552 21.0337 156.336 21.0337 156.207 20.9165C155.939 20.6615 155.702 20.4271 155.485 20.2133C155.248 19.9893 155.05 19.7825 154.882 19.5963C154.694 19.3998 154.478 19.1654 154.22 18.9034C154.102 18.7656 153.865 18.5139 153.488 18.1037C153.478 18.1037 153.467 18.0934 153.467 18.083L148.901 13.071C148.674 12.8263 148.448 12.5643 148.211 12.2885C147.984 12.0334 147.737 11.7404 147.468 11.4095C147.458 11.4095 147.458 11.3992 147.447 11.3992C147.2 11.0958 146.952 10.8028 146.726 10.5202C146.538 10.2754 146.37 10.0617 146.22 9.86522L146.224 9.86866ZM144.962 20.7545V20.1375C144.952 20.2547 144.952 20.3822 144.952 20.5098C144.941 20.9096 144.931 21.3405 144.913 21.7818C144.892 22.2402 144.875 22.6332 144.844 22.9641C144.812 23.3157 144.784 23.6191 144.746 23.8741C144.735 23.9052 144.735 23.9224 144.725 23.9534H145.199C145.178 23.9224 145.168 23.8845 145.168 23.8466C145.098 23.2502 145.049 22.7021 145.011 22.1851C144.979 21.668 144.962 21.1889 144.962 20.758V20.7545ZM163.032 23.95H165.096C165.085 23.9293 165.085 23.9017 165.075 23.881C165.054 23.7259 165.026 23.5191 165.005 23.2571C164.974 22.9917 164.946 22.709 164.925 22.4057C164.893 22.092 164.876 21.7232 164.855 21.3026C164.834 20.92 164.817 20.5029 164.796 20.0306C164.785 19.5825 164.775 19.1896 164.765 18.8586C164.754 18.4691 164.754 18.183 164.754 18.0072V15.7804C164.754 15.4977 164.754 15.1565 164.765 14.7532C164.775 14.3912 164.785 14.0293 164.796 13.6604C164.806 13.2882 164.827 12.9469 164.834 12.6436C164.855 12.3023 164.866 11.999 164.883 11.7335C164.904 11.4784 164.921 11.1854 164.953 10.8545C164.984 10.5512 165.012 10.2478 165.05 9.95484C165.05 9.92382 165.061 9.89624 165.071 9.86522H163.074C163.084 9.89624 163.095 9.91348 163.095 9.9445C163.192 10.6684 163.273 11.5095 163.321 12.4574C163.381 13.4054 163.402 14.4498 163.402 15.6046V17.2937C163.402 17.8314 163.402 18.4071 163.381 19.0241C163.37 19.6101 163.342 20.2064 163.311 20.7924C163.28 21.3991 163.252 21.9541 163.203 22.4539C163.165 22.9538 163.112 23.4122 163.053 23.8431C163.053 23.881 163.043 23.9224 163.022 23.95H163.032ZM169.08 20.6856L169.801 22.9917C169.941 23.0503 170.087 23.0985 170.255 23.1571C170.471 23.2261 170.701 23.2847 170.945 23.3329C171.203 23.3812 171.429 23.4226 171.645 23.4398C171.861 23.4708 172.05 23.4777 172.217 23.4777H172.227C172.465 23.4777 172.691 23.457 172.9 23.4088C173.109 23.3778 173.305 23.3192 173.503 23.233C173.691 23.1537 173.869 23.0675 174.026 22.9676C174.176 22.871 174.312 22.7607 174.43 22.6435C174.43 22.6332 174.441 22.6332 174.441 22.6332C174.549 22.516 174.657 22.3884 174.737 22.2609C174.828 22.123 174.905 21.9886 174.974 21.83C175.033 21.6818 175.082 21.537 175.114 21.3888C175.145 21.2509 175.152 21.1165 175.152 20.9682C175.152 20.6752 175.114 20.4098 175.013 20.1754C174.915 19.9307 174.765 19.717 174.566 19.5205C174.35 19.3068 174.061 19.0517 173.688 18.769C173.312 18.4864 172.869 18.1623 172.336 17.8107C171.802 17.4591 171.339 17.1282 170.941 16.8249C170.537 16.5112 170.209 16.2389 169.962 15.9941L169.951 15.9838C169.735 15.7701 169.547 15.5426 169.38 15.3081C169.212 15.0841 169.073 14.8497 168.965 14.6256C168.965 14.6153 168.965 14.6049 168.954 14.6049C168.846 14.3705 168.766 14.1258 168.707 13.8707C168.658 13.6053 168.627 13.333 168.627 13.0607C168.627 12.7366 168.665 12.4264 168.756 12.1024C168.846 11.7887 168.972 11.4784 169.15 11.1751C169.327 10.8614 169.543 10.5684 169.812 10.3168C170.08 10.0514 170.394 9.8273 170.75 9.62392C170.76 9.62392 170.76 9.61358 170.77 9.61358C171.126 9.40675 171.52 9.26198 171.956 9.16546C172.391 9.0586 172.865 9.01034 173.367 9.01034C173.583 9.01034 173.813 9.02068 174.068 9.03102C174.315 9.04136 174.563 9.06205 174.8 9.07928C175.068 9.09997 175.274 9.1172 175.424 9.1172C175.581 9.12754 175.71 9.13788 175.811 9.13788H175.821C175.961 9.12754 176.097 9.12754 176.236 9.12754H176.257C176.316 9.1172 176.375 9.1172 176.445 9.1172C176.484 9.1172 176.525 9.1172 176.564 9.10686H176.602C176.661 9.09652 176.721 9.08618 176.839 9.07584C177.027 9.05515 177.184 9.1827 177.205 9.36884C177.216 9.38952 177.216 9.39986 177.216 9.4171L177.264 12.8469C177.275 13.0227 177.125 13.1779 176.937 13.1779H176.797C176.64 13.1779 176.501 13.071 176.47 12.9124L175.877 10.7546C175.483 10.5891 175.107 10.4616 174.751 10.3719C174.364 10.2754 174.019 10.2237 173.695 10.2237C173.427 10.2237 173.172 10.2547 172.935 10.303C172.698 10.3513 172.471 10.4305 172.262 10.5271C172.064 10.6167 171.875 10.7339 171.719 10.8683C171.562 10.9959 171.433 11.1406 171.314 11.2992C171.206 11.4647 171.126 11.6405 171.067 11.8163C171.018 12.0024 170.987 12.1989 170.987 12.4023C170.987 12.6056 171.025 12.8125 171.095 12.9986C171.164 13.1951 171.283 13.3812 171.429 13.557C171.586 13.7535 171.785 13.9397 172.001 14.1327C172.227 14.3188 172.485 14.5153 172.771 14.698C172.771 14.7084 172.782 14.7084 172.782 14.7187C173.109 14.9255 173.406 15.1289 173.709 15.315C173.977 15.4908 174.322 15.7149 174.706 15.9596C175.051 16.194 175.368 16.4078 175.654 16.6353C175.95 16.8593 176.198 17.0765 176.414 17.2902C176.839 17.7108 177.163 18.1796 177.393 18.6794C177.609 19.1861 177.721 19.7239 177.721 20.2926C177.721 20.6166 177.683 20.9476 177.592 21.2785C177.512 21.6025 177.383 21.9334 177.216 22.2643C177.216 22.2747 177.216 22.285 177.205 22.285C177.038 22.6263 176.811 22.94 176.522 23.2226C176.247 23.5053 175.908 23.7707 175.515 24.0051C175.11 24.2395 174.654 24.4153 174.141 24.5325C173.636 24.6497 173.075 24.7083 172.471 24.7083C172.262 24.7083 172.036 24.698 171.76 24.6876C171.492 24.6773 171.217 24.6566 170.931 24.629C170.624 24.6084 170.366 24.5911 170.171 24.5808C169.962 24.5704 169.794 24.5601 169.648 24.5601H169.491C169.453 24.5601 169.411 24.5704 169.383 24.5704C169.362 24.5704 169.313 24.5704 169.244 24.5808L169.045 24.6015C168.926 24.6118 168.878 24.6221 168.867 24.6221H168.759C168.571 24.6221 168.414 24.4739 168.414 24.2912V24.2809L168.257 20.7649C168.247 20.5787 168.397 20.4236 168.585 20.4133H168.742C168.899 20.4133 169.028 20.5305 169.069 20.6787L169.08 20.6856ZM169.198 23.3329L169.042 22.8055L169.09 23.9396H169.188C169.226 23.9293 169.279 23.9293 169.327 23.9189H169.338C169.376 23.9189 169.428 23.9086 169.488 23.9086H169.665C169.805 23.9086 169.993 23.9086 170.22 23.9293C170.37 23.9396 170.537 23.95 170.704 23.9603C170.467 23.9121 170.258 23.8534 170.052 23.7949C169.826 23.7156 169.606 23.6397 169.401 23.5398C169.31 23.5087 169.244 23.4329 169.202 23.3329H169.198ZM173.765 23.8535C173.608 23.9224 173.447 23.9707 173.28 24.0189C173.538 23.9879 173.786 23.95 174.012 23.9017C174.458 23.7949 174.842 23.6466 175.187 23.4432C175.532 23.2468 175.818 23.0227 176.065 22.7676C176.302 22.5332 176.48 22.2781 176.619 22.0058C176.63 22.0058 176.63 21.9955 176.63 21.9955C176.78 21.7025 176.888 21.4095 176.958 21.1268C177.027 20.8545 177.066 20.5787 177.066 20.3064C177.066 19.8273 176.968 19.3791 176.79 18.9586C176.602 18.5381 176.327 18.1485 175.95 17.7763C175.752 17.5694 175.525 17.3764 175.26 17.1696C174.995 16.9627 174.695 16.7594 174.361 16.5353C174.054 16.3388 173.73 16.1354 173.353 15.8907C173.019 15.6666 172.702 15.4702 172.433 15.284C172.423 15.284 172.423 15.2737 172.412 15.2737C172.105 15.0669 171.83 14.8635 171.583 14.6498C171.325 14.436 171.109 14.2189 170.92 13.9948C170.722 13.7604 170.575 13.5157 170.474 13.2537C170.377 12.9883 170.324 12.7056 170.324 12.4229C170.324 12.1575 170.363 11.8955 170.432 11.6508C170.512 11.4061 170.621 11.1717 170.767 10.9579V10.9476C170.917 10.7339 171.095 10.5477 171.29 10.3719C171.488 10.2168 171.715 10.0686 171.973 9.94105H171.983C172.14 9.87211 172.301 9.80317 172.468 9.75491C172.349 9.77559 172.231 9.79283 172.112 9.82385C171.746 9.91348 171.412 10.0376 171.116 10.2065C171.105 10.2065 171.105 10.2168 171.095 10.2168C170.788 10.3926 170.523 10.5891 170.293 10.8028C170.066 11.0165 169.889 11.2613 169.739 11.5164C169.589 11.7818 169.481 12.0334 169.411 12.2989C169.341 12.5539 169.303 12.8159 169.303 13.0813C169.303 13.3157 169.324 13.5398 169.373 13.757C169.421 13.9638 169.481 14.1568 169.571 14.343C169.571 14.3533 169.582 14.3533 169.582 14.3637C169.672 14.5601 169.791 14.7532 169.937 14.9497C170.077 15.1461 170.244 15.3392 170.443 15.546C170.68 15.7701 170.976 16.0355 171.353 16.3181C171.739 16.6008 172.182 16.9248 172.715 17.2868C173.259 17.6384 173.723 17.9693 174.11 18.2623C174.504 18.5656 174.821 18.838 175.058 19.0724C175.316 19.3378 175.511 19.6308 175.64 19.9514C175.769 20.265 175.839 20.6166 175.839 20.9855C175.839 21.1716 175.818 21.3578 175.779 21.5439C175.731 21.7301 175.671 21.9162 175.602 22.1092C175.511 22.2954 175.424 22.4712 175.305 22.647C175.197 22.8021 175.068 22.9607 174.929 23.1054C174.929 23.1054 174.922 23.1123 174.908 23.1261C174.758 23.2743 174.58 23.4088 174.385 23.5363C174.197 23.6639 173.991 23.7707 173.761 23.8603L173.765 23.8535ZM175.393 9.79283C175.284 9.79283 175.166 9.78249 175.037 9.77215C175.424 9.879 175.839 10.0272 176.281 10.2134C176.379 10.2513 176.459 10.3306 176.491 10.4374L176.571 10.7097L176.55 9.79283H176.48C176.421 9.79283 176.351 9.79283 176.271 9.80317H176.25C176.131 9.80317 176.003 9.80317 175.856 9.81351H175.818C175.72 9.81351 175.581 9.81351 175.393 9.79283ZM180.384 9.20682H189.227C189.513 9.20682 189.771 9.20682 189.987 9.19648C190.214 9.19648 190.451 9.1758 190.677 9.16546C190.887 9.14478 191.152 9.12754 191.469 9.09652C191.803 9.07584 192.11 9.04826 192.396 9.01724C192.584 8.99655 192.741 9.13444 192.762 9.31024V9.32058L192.999 12.585C193.009 12.7711 192.87 12.9262 192.682 12.9469H192.542C192.385 12.9469 192.246 12.84 192.208 12.6918L191.524 10.5339C191.287 10.496 191.05 10.465 190.803 10.4443C190.496 10.4236 190.179 10.4064 189.855 10.4064C189.559 10.4064 189.29 10.4167 189.046 10.4271C188.799 10.4478 188.551 10.465 188.314 10.496H188.293C188.077 10.5271 187.84 10.565 187.593 10.6132C187.415 10.6511 187.227 10.6925 187.049 10.7304C187.028 10.9752 187.017 11.1992 187 11.413C186.979 11.7266 186.962 12.0196 186.951 12.292C186.93 12.5953 186.92 12.8676 186.913 13.1227C186.902 13.395 186.892 13.6501 186.892 13.8948V13.9328C186.881 14.3637 186.871 14.667 186.871 14.9014V18.2416C186.871 18.7104 186.881 19.1896 186.892 19.6584C186.913 20.1272 186.93 20.6339 186.962 21.1716C186.993 21.699 187.021 22.1885 187.059 22.6366C187.091 22.9676 187.119 23.2606 187.15 23.5156L189.412 23.8466C189.579 23.8672 189.698 24.012 189.698 24.1775V24.274C189.698 24.4601 189.548 24.6049 189.363 24.6049H181.667C181.489 24.6049 181.332 24.4567 181.332 24.274V24.1775C181.332 24.0017 181.472 23.8638 181.639 23.8466L183.852 23.5156C183.943 22.8504 184.002 22.1196 184.051 21.3267C184.1 20.4477 184.131 19.4791 184.131 18.414V14.7704C184.131 14.3602 184.121 13.9983 184.121 13.6673C184.11 13.3054 184.1 12.9331 184.082 12.5643C184.062 12.223 184.044 11.8714 184.013 11.5095C183.992 11.244 183.964 10.9821 183.933 10.7373C183.804 10.6994 183.675 10.6787 183.539 10.6477C183.323 10.6098 183.086 10.5684 182.828 10.5408H182.796C182.57 10.5098 182.333 10.4822 182.085 10.4616C181.838 10.4409 181.601 10.4305 181.384 10.4236C181.018 10.4236 180.663 10.4443 180.318 10.4719C180.022 10.4926 179.736 10.5305 179.457 10.5684L178.784 12.7677C178.735 12.9159 178.606 13.0021 178.456 13.0021H178.317C178.129 13.0021 177.982 12.8538 177.982 12.6711V12.6332L178.199 9.3516C178.209 9.16546 178.376 9.02758 178.554 9.03792C178.662 9.04826 178.802 9.0586 178.958 9.07584C179.108 9.08618 179.276 9.10686 179.464 9.13444C179.642 9.15512 179.809 9.17235 179.969 9.1827C180.126 9.20338 180.255 9.20338 180.384 9.20338V9.20682ZM187.973 9.86866H182.824L182.883 9.879H182.904C183.173 9.91692 183.417 9.95829 183.664 9.99621C183.912 10.0445 184.128 10.0927 184.326 10.1444C184.455 10.1823 184.563 10.2927 184.574 10.4271C184.612 10.7684 184.654 11.1096 184.682 11.4543C184.713 11.7956 184.731 12.1575 184.752 12.5401C184.773 12.9021 184.783 13.2744 184.79 13.6536C184.801 14.0638 184.801 14.4464 184.801 14.7773V18.4209C184.801 19.4757 184.769 20.4615 184.72 21.3716C184.672 22.2712 184.591 23.0916 184.483 23.8431C184.483 23.881 184.473 23.9121 184.452 23.95H186.547C186.526 23.9189 186.515 23.8914 186.515 23.8535C186.467 23.5122 186.425 23.1296 186.387 22.7021C186.355 22.2816 186.317 21.7852 186.289 21.2164C186.258 20.689 186.24 20.1823 186.219 19.6825C186.209 19.1551 186.198 18.6759 186.198 18.2451V14.9048C186.198 14.7876 186.198 14.436 186.219 13.919V13.8811C186.219 13.626 186.23 13.3743 186.24 13.1089C186.251 12.8263 186.271 12.5436 186.278 12.2678C186.289 11.9541 186.31 11.6611 186.327 11.3681C186.348 11.0441 186.376 10.7442 186.397 10.4512C186.418 10.303 186.505 10.1858 186.655 10.1479C186.941 10.0789 187.209 10.0203 187.464 9.96173C187.631 9.93071 187.798 9.90313 187.969 9.87211L187.973 9.86866ZM191.528 9.7618C191.371 9.78249 191.211 9.79283 191.064 9.79972C191.333 9.83075 191.587 9.86866 191.845 9.90658C191.964 9.92726 192.072 10.0134 192.114 10.141L192.162 10.2961L192.124 9.7101C191.887 9.73078 191.688 9.74802 191.531 9.75836L191.528 9.7618ZM179.14 9.94795C179.377 9.91003 179.624 9.879 179.872 9.85143C179.722 9.84109 179.565 9.8204 179.377 9.79283C179.199 9.77215 179.042 9.75491 178.892 9.73423H178.854L178.805 10.3892L178.875 10.1823C178.906 10.0651 179.014 9.97552 179.143 9.94795H179.14Z" fill="white"/>
<defs>
<clipPath id="clip0_133_1990">
<rect width="38" height="34" fill="white"/>
</clipPath>
</defs>
</svg>
